Motion_pu07
version=1
nRows=8
nColumns=43
inDegrees=yes
endheader
time	pelvis_tilt	pelvis_list	pelvis_rotation	pelvis_tx	pelvis_ty	pelvis_tz	hip_flexion_r	hip_adduction_r	hip_rotation_r	knee_angle_r	ankle_angle_r	subtalar_angle_r	mtp_angle_r	hip_flexion_l	hip_adduction_l	hip_rotation_l	knee_angle_l	ankle_angle_l	subtalar_angle_l	mtp_angle_l	lumbar_extension	lumbar_bending	lumbar_rotation	neck_flexion	neck_lateral_bending	neck_rotation	arm_flex_r	arm_add_r	arm_rot_r	elbow_flex_r	pro_sup_r	wrist_flex_r	wrist_dev_r	hand_finger_flex_r	arm_flex_l	arm_add_l	arm_rot_l	elbow_flex_l	pro_sup_l	wrist_flex_l	wrist_dev_l	hand_finger_flex_l
      3.97500000	     -5.11863603	     -6.69032713	    -96.06595101	      0.02244807	      0.96953918	      0.68316713	     -9.40392380	     -5.18680668	      1.75309346	    -22.25929548	      9.21652111	     -2.73834014	     13.40879565	     -8.65213642	     -4.64303092	    -27.04963055	     -7.43103618	      8.46102188	     21.22497046	      5.57566313	    -19.19839700	      3.86823432	     10.44554736	    -35.85255016	      8.66375266	     -9.13415984	    -78.08464219	   -123.65358937	   -161.69806361	     94.02071238	    132.74330239	    -17.39855969	     -2.62962779	    -20.11665629	     75.39007995	    -25.82591229	      3.94758892	    111.54168153	    144.08026495	    -23.16144789	      4.92321202	     -7.56377727
      3.97750000	     -5.05687348	     -6.85439825	    -95.91832367	      0.02324440	      0.96962057	      0.68102405	     -9.36449403	     -5.28829699	      1.75983399	    -22.57035166	      9.36476016	     -2.75265288	     13.43926283	     -8.55927041	     -4.58248855	    -26.96281289	     -7.60997663	      8.49950049	     21.30279672	      5.56911743	    -19.57499280	      3.91455972	     10.50128649	    -35.47113272	      8.49929643	     -9.06542938	    -78.83243254	   -123.05548262	   -162.23729096	     94.88330457	    132.71170035	    -17.44341549	     -2.72159946	    -20.14012549	     74.31219942	    -25.43705013	      3.49139772	    112.13891692	    144.03412298	    -23.33287247	      4.91748956	     -7.58930704
      3.98000000	     -4.68317658	     -6.24727454	    -95.51051738	      0.02121522	      0.96925613	      0.68099042	     -9.03455846	     -5.41000232	      1.53304085	    -22.11671454	      9.30039668	     -2.33337897	     13.51518800	     -7.86391012	     -4.45810032	    -27.01101922	     -7.44305477	      8.05868522	     21.54298543	      5.39538194	    -18.66058682	      3.23778218	     10.25281729	    -36.15308558	      9.51301102	     -8.81727127	    -82.71040231	   -122.13124419	   -165.56696248	     96.68332721	    132.13629707	    -17.22932725	     -3.13580121	    -20.10195403	     73.26223861	    -25.07839096	      3.64770184	    112.76364912	    143.78001110	    -22.63173183	      4.59785056	     -7.21014604
      3.98250000	     -4.66825592	     -6.40398537	    -95.62486352	      0.02160369	      0.96925285	      0.67935249	     -9.00708810	     -5.54757854	      1.45990791	    -22.35886008	      9.46183327	     -2.36377650	     13.54495106	     -7.85473794	     -4.44614908	    -26.77196921	     -7.66500737	      8.13251281	     21.63075371	      5.39793605	    -18.99007120	      3.30654506	     10.44234681	    -35.45690019	      9.49887170	     -8.82999611	    -83.57008456	   -121.77380545	   -166.10587521	     97.45132730	    132.08531884	    -17.30343274	     -3.19174410	    -20.12451036	     71.98627348	    -24.92673757	      3.18368156	    113.37854950	    143.75294803	    -22.84964513	      4.57878088	     -7.24970639
      3.98500000	     -4.68134480	     -6.28549348	    -95.72117647	      0.01999655	      0.96940887	      0.67821382	     -9.05305673	     -5.43569613	      1.55002644	    -21.93944115	      9.37656044	     -2.02303441	     13.56916994	     -7.73087737	     -4.52172294	    -26.70637822	     -7.53965281	      8.18157849	     21.54778073	      5.37049377	    -18.93851111	      3.17029123	     10.41591740	    -35.08550786	      9.67696254	     -8.94781042	    -85.82248691	   -121.68690672	   -167.97874697	     98.64029293	    131.78165155	    -17.38055097	     -3.29531289	    -20.12219165	     70.76052290	    -25.14448021	      2.65129660	    114.14419548	    143.65698507	    -22.87777574	      4.44323265	     -7.17170038
      3.98750000	     -4.09974358	     -5.49841190	    -94.94902047	      0.01882734	      0.96850209	      0.67862669	     -8.51745101	     -5.75339453	      1.00213261	    -21.74959112	      9.37855936	     -1.82253310	     13.67576555	     -6.71625232	     -4.24743740	    -26.46158943	     -7.50443083	      7.44329597	     21.82934050	      5.17799628	    -17.72841785	      2.28981979	     10.29704342	    -35.87396119	     11.44838368	     -8.63343865	    -90.52864179	   -120.02038296	   -172.02164889	    100.56834244	    131.08593784	    -17.15540605	     -3.75789424	    -19.91078026	     69.93663924	    -24.04258742	      3.44233044	    114.29921590	    143.22853767	    -21.93599391	      4.07807780	     -6.58790703
      3.99000000	     -4.11117409	     -5.67912242	    -95.06495953	      0.01930041	      0.96860784	      0.67652616	     -8.49197623	     -5.83606743	      1.02582803	    -21.97389480	      9.54966905	     -1.82314592	     13.70810689	     -6.70025385	     -4.23479006	    -26.23810164	     -7.71202461	      7.59947488	     21.85736501	      5.19682542	    -18.19425367	      2.39813368	     10.44163088	    -35.17673617	     11.27778133	     -8.69061938	    -91.33818394	   -119.75093730	   -172.59826762	    101.32113712	    131.02551107	    -17.27041314	     -3.77839018	    -19.93685766	     68.69349978	    -24.06331273	      2.99815395	    115.12149346	    143.22513338	    -22.24238527	      4.00838563	     -6.64971309
      3.99250000	     -4.02234927	     -5.29089488	    -94.78208123	      0.01751925	      0.96847595	      0.67639988	     -8.49260454	     -5.70306546	      1.16388558	    -21.34210950	      9.37082159	     -1.39023613	     13.76753688	     -6.27907785	     -4.32783424	    -26.14853460	     -7.58003775	      7.43880082	     21.54210480	      5.13326372	    -17.67322020	      2.07862724	     10.38006349	    -35.56080227	     11.92013900	     -8.92544910	    -95.06952088	   -119.15187946	   -175.77238694	    102.86920827	    130.44643834	    -17.31790332	     -3.91222675	    -19.80889325	     67.59417977	    -23.84459717	      3.11156731	    115.64703541	    142.95854786	    -22.10787647	      3.77351649	     -6.34198414
